HIERARCHY
ROOT Hips
{
	OFFSET 0.00000 0.00000 0.00000
	CHANNELS 6 Xposition Yposition Zposition Zrotation Yrotation Xrotation 
	JOINT LHipJoint
	{
		OFFSET 0 0 0
		CHANNELS 3 Zrotation Yrotation Xrotation
		JOINT LeftUpLeg
		{
			OFFSET 1.84395 -1.68683 0.74144
			CHANNELS 3 Zrotation Yrotation Xrotation
			JOINT LeftLeg
			{
				OFFSET 2.27037 -6.23779 0.00000
				CHANNELS 3 Zrotation Yrotation Xrotation
				JOINT LeftFoot
				{
					OFFSET 2.56918 -7.05877 0.00000
					CHANNELS 3 Zrotation Yrotation Xrotation
					JOINT LeftToeBase
					{
						OFFSET 0.22276 -0.61202 1.71784
						CHANNELS 3 Zrotation Yrotation Xrotation
						End Site
						{
							OFFSET 0.00000 -0.00000 0.91613
						}
					}
				}
			}
		}
	}
	JOINT RHipJoint
	{
		OFFSET 0 0 0
		CHANNELS 3 Zrotation Yrotation Xrotation
		JOINT RightUpLeg
		{
			OFFSET -1.76833 -1.68684 0.74144
			CHANNELS 3 Zrotation Yrotation Xrotation
			JOINT RightLeg
			{
				OFFSET -2.49360 -6.85110 0.00000
				CHANNELS 3 Zrotation Yrotation Xrotation
				JOINT RightFoot
				{
					OFFSET -2.55538 -7.02085 0.00000
					CHANNELS 3 Zrotation Yrotation Xrotation
					JOINT RightToeBase
					{
						OFFSET -0.21516 -0.59115 1.68050
						CHANNELS 3 Zrotation Yrotation Xrotation
						End Site
						{
							OFFSET -0.00000 -0.00000 0.89604
						}
					}
				}
			}
		}
	}
	JOINT LowerBack
	{
		OFFSET 0 0 0
		CHANNELS 3 Zrotation Yrotation Xrotation
		JOINT Spine
		{
			OFFSET 0.06382 1.72312 -0.19613
			CHANNELS 3 Zrotation Yrotation Xrotation
			JOINT Spine1
			{
				OFFSET -0.00055 1.73507 0.23859
				CHANNELS 3 Zrotation Yrotation Xrotation
				JOINT Neck
				{
					OFFSET 0 0 0
					CHANNELS 3 Zrotation Yrotation Xrotation
					JOINT Neck1
					{
						OFFSET 0.03638 1.65562 0.09633
						CHANNELS 3 Zrotation Yrotation Xrotation
						JOINT Head
						{
							OFFSET 0.06388 1.62807 -0.32386
							CHANNELS 3 Zrotation Yrotation Xrotation
							End Site
							{
								OFFSET 0.00995 1.67644 -0.12021
							}
						}
					}
				}
				JOINT LeftShoulder
				{
					OFFSET 0 0 0
					CHANNELS 3 Zrotation Yrotation Xrotation
					JOINT LeftArm
					{
						OFFSET 3.09648 1.42991 0.28122
						CHANNELS 3 Zrotation Yrotation Xrotation
						JOINT LeftForeArm
						{
							OFFSET 5.11878 -0.00000 -0.00000
							CHANNELS 3 Zrotation Yrotation Xrotation
							JOINT LeftHand
							{
								OFFSET 3.59971 -0.00000 0.00000
								CHANNELS 3 Zrotation Yrotation Xrotation
								JOINT LeftFingerBase
								{
									OFFSET 0 0 0
									CHANNELS 3 Zrotation Yrotation Xrotation
									JOINT LeftHandIndex1
									{
										OFFSET 0.62877 -0.00000 0.00000
										CHANNELS 3 Zrotation Yrotation Xrotation
										End Site
										{
											OFFSET 0.50693 -0.00000 0.00000
										}
									}
								}
								JOINT LThumb
								{
									OFFSET 0 0 0
									CHANNELS 3 Zrotation Yrotation Xrotation
									End Site
									{
										OFFSET 0.51467 -0.00000 0.51467
									}
								}
							}
						}
					}
				}
				JOINT RightShoulder
				{
					OFFSET 0 0 0
					CHANNELS 3 Zrotation Yrotation Xrotation
					JOINT RightArm
					{
						OFFSET -3.33565 1.14597 0.05047
						CHANNELS 3 Zrotation Yrotation Xrotation
						JOINT RightForeArm
						{
							OFFSET -5.49020 -0.00000 0.00000
							CHANNELS 3 Zrotation Yrotation Xrotation
							JOINT RightHand
							{
								OFFSET -3.20659 -0.00000 -0.00000
								CHANNELS 3 Zrotation Yrotation Xrotation
								JOINT RightFingerBase
								{
									OFFSET 0 0 0
									CHANNELS 3 Zrotation Yrotation Xrotation
									JOINT RightHandIndex1
									{
										OFFSET -0.69188 -0.00000 0.00000
										CHANNELS 3 Zrotation Yrotation Xrotation
										End Site
										{
											OFFSET -0.55781 -0.00000 0.00000
										}
									}
								}
								JOINT RThumb
								{
									OFFSET 0 0 0
									CHANNELS 3 Zrotation Yrotation Xrotation
									End Site
									{
										OFFSET -0.56633 -0.00000 0.56633
									}
								}
							}
						}
					}
				}
			}
		}
	}
}
MOTION
Frames: 14
Frame Time: .0083333
0.0003 17.7435 7.3070 -9.8288 1.1690 10.7188 0.0000 0.0000 0.0000 -3.4683 -27.5938 -2.2173 0.0517 1.4675 4.0361 -3.2076 30.2538 -18.1362 0.2773 -3.3870 -9.3582 0.0000 0.0000 0.0000 24.5718 20.8205 -8.8182 -0.4421 -4.2663 11.8270 0.2418 -14.5255 -17.7043 -0.0007 0.1753 -0.4816 9.7549 3.6903 5.6591 -0.2677 5.2203 5.7455 -5.8045 2.9978 3.7790 -5.5320 -4.7989 -2.6208 11.9780 -7.9603 17.2537 4.2370 -3.3781 6.3283 0.0000 0.0000 0.0000 -30.4606 -53.2593 73.0741 46.1174 -51.3043 -23.1076 -0.0000 0.0000 -79.5372 3.4902 -6.9257 -0.4214 -7.1250 0.0000 -0.0000 -16.9344 23.0865 9.3395 0.0000 0.0000 0.0000 36.9525 50.6003 75.3701 -57.9106 55.7270 -32.6084 0.0000 -0.0000 -45.0787 19.8456 -28.1486 -9.6630 7.1250 -0.0000 -0.0000 49.5093 -51.4194 -9.8813
0.0070 17.7416 7.3029 -9.7610 1.0126 10.7257 0.0000 0.0000 0.0000 -3.5839 -27.4393 -2.2478 0.0530 1.4860 4.0870 -3.1986 30.2167 -18.1120 0.2821 -3.4158 -9.4387 0.0000 0.0000 0.0000 24.4623 20.8770 -8.8588 -0.4459 -4.2844 11.8781 0.2426 -14.4790 -17.6149 -0.0015 0.2517 -0.6916 9.7666 3.6226 5.6039 -0.1254 5.1185 5.7998 -5.6553 2.9477 3.8364 -5.3462 -4.7710 -2.6570 11.7797 -7.8888 17.0823 4.1435 -3.3495 6.2595 0.0000 -0.0000 0.0000 -30.5333 -53.2620 72.9782 46.1592 -51.3239 -23.1402 -0.0000 0.0000 -79.3884 3.4732 -6.7493 -0.4087 -7.1250 0.0000 -0.0000 -16.9676 23.2557 9.2901 0.0000 -0.0000 0.0000 36.7904 50.5446 75.1715 -58.0089 55.7556 -32.6897 0.0000 -0.0000 -45.1743 20.1804 -27.9874 -9.7860 7.1250 -0.0000 -0.0000 49.6368 -51.2437 -9.6673
0.0143 17.7401 7.2990 -9.6960 0.8257 10.7541 0.0000 0.0000 0.0000 -3.6799 -27.2325 -2.3178 0.0547 1.5087 4.1496 -3.1727 30.1249 -18.1419 0.2816 -3.4131 -9.4311 0.0000 0.0000 0.0000 24.3449 21.0013 -8.8764 -0.4463 -4.2862 11.8832 0.2449 -14.4636 -17.5573 -0.0024 0.3174 -0.8720 9.6884 3.5093 5.5243 0.0829 4.9494 5.8440 -5.3871 2.8569 3.8694 -5.1687 -4.6724 -2.6520 11.4556 -7.6965 16.8656 4.0204 -3.2746 6.1540 -0.0000 0.0000 0.0000 -30.6817 -53.1066 72.8205 46.2062 -51.3459 -23.1769 -0.0000 0.0000 -79.1621 3.5385 -6.7271 -0.4150 -7.1250 0.0000 -0.0000 -16.9239 23.2765 9.2555 -0.0000 0.0000 0.0000 36.8590 50.5582 75.1382 -57.9658 55.7431 -32.6540 0.0000 -0.0000 -45.1428 20.2039 -28.0222 -9.8091 7.1250 -0.0000 -0.0000 49.6852 -51.2647 -9.7122
0.0229 17.7383 7.2963 -9.5762 0.6285 10.7602 0.0000 0.0000 0.0000 -3.8736 -27.0752 -2.3125 0.0551 1.5142 4.1649 -3.1580 30.0830 -18.2245 0.2635 -3.3021 -9.1210 0.0000 0.0000 0.0000 24.1663 21.0602 -8.8793 -0.4454 -4.2820 11.8715 0.2463 -14.4117 -17.4495 -0.0045 0.4336 -1.1914 9.5360 3.3879 5.4331 0.3013 4.7654 5.9007 -5.0666 2.7563 3.9130 -5.1830 -4.6163 -2.8775 11.3121 -7.6032 16.9648 3.9787 -3.2303 6.2117 0.0000 0.0000 0.0000 -30.7914 -52.9470 72.6587 46.2749 -51.3780 -23.2306 -0.0000 0.0000 -78.9698 3.5904 -6.8948 -0.4316 -7.1250 0.0000 -0.0000 -16.8670 23.1154 9.2872 0.0000 0.0000 0.0000 36.9929 50.5112 75.0852 -57.9229 55.7305 -32.6186 0.0000 -0.0000 -44.9798 20.1695 -28.1293 -9.8250 7.1250 -0.0000 -0.0000 49.7500 -51.3483 -9.8524
0.0325 17.7360 7.2920 -9.4380 0.4316 10.7344 0.0000 0.0000 0.0000 -4.1000 -26.9203 -2.2995 0.0558 1.5238 4.1912 -3.1405 30.0308 -18.3100 0.2467 -3.1958 -8.8245 0.0000 0.0000 0.0000 23.9684 21.1264 -8.8651 -0.4466 -4.2876 11.8873 0.2432 -14.3400 -17.3712 -0.0054 0.4765 -1.3092 9.3845 3.2637 5.3964 0.5217 4.5832 5.9614 -4.7487 2.6557 3.9331 -5.3085 -4.5807 -3.0588 11.2592 -7.5386 17.0095 3.9837 -3.2040 6.2545 0.0000 0.0000 0.0000 -30.9264 -52.8594 72.5330 46.2723 -51.3768 -23.2286 -0.0000 0.0000 -78.8336 3.5911 -6.9883 -0.4375 -7.1250 0.0000 -0.0000 -16.8554 23.0258 9.3167 0.0000 0.0000 0.0000 37.0831 50.3714 74.9213 -57.8690 55.7148 -32.5740 0.0000 -0.0000 -44.8830 20.4139 -27.9539 -9.8962 7.1250 -0.0000 -0.0000 49.7926 -51.1784 -9.6194
0.0427 17.7338 7.2859 -9.2735 0.2347 10.7313 0.0000 0.0000 0.0000 -4.3199 -26.6598 -2.4041 0.0576 1.5481 4.2584 -3.1004 29.8858 -18.3415 0.2416 -3.1633 -8.7338 0.0000 0.0000 0.0000 23.7220 21.2570 -8.8744 -0.4492 -4.2999 11.9219 0.2371 -14.2914 -17.3740 -0.0036 0.3856 -1.0595 9.2514 3.1526 5.3439 0.7076 4.4182 6.0187 -4.4762 2.5659 3.9684 -5.3076 -4.5486 -3.0807 11.1868 -7.4731 16.8836 3.9632 -3.1807 6.2101 -0.0000 -0.0000 0.0000 -30.9812 -52.8878 72.4962 46.2198 -51.3522 -23.1875 -0.0000 0.0000 -78.6704 3.6416 -6.9747 -0.4428 -7.1250 0.0000 -0.0000 -16.8212 23.0384 9.2910 -0.0000 -0.0000 0.0000 37.1800 50.1939 74.6776 -57.7169 55.6702 -32.4484 0.0000 -0.0000 -44.9038 20.6319 -27.6779 -9.9201 7.1250 -0.0000 -0.0000 49.7290 -50.9406 -9.2554
0.0530 17.7317 7.2810 -9.1350 0.0388 10.7422 0.0000 0.0000 0.0000 -4.5153 -26.4663 -2.4794 0.0592 1.5700 4.3188 -3.0762 29.8088 -18.4265 0.2262 -3.0612 -8.4491 0.0000 0.0000 0.0000 23.5030 21.3807 -8.9041 -0.4522 -4.3142 11.9624 0.2327 -14.2566 -17.3771 -0.0026 0.3272 -0.8989 9.1463 3.0311 5.2393 0.9119 4.2352 6.0598 -4.1978 2.4676 4.0163 -5.2235 -4.4740 -3.0329 11.0370 -7.3465 16.7687 3.9099 -3.1297 6.1458 0.0000 0.0000 0.0000 -31.0151 -52.9511 72.5771 46.1314 -51.3109 -23.1185 -0.0000 0.0000 -78.4111 3.7944 -6.7461 -0.4464 -7.1250 0.0000 -0.0000 -16.7396 23.2565 9.1537 0.0000 0.0000 0.0000 37.2750 50.0441 74.6676 -57.8458 55.7080 -32.5549 0.0000 -0.0000 -45.6284 19.2150 -28.3355 -9.3930 7.1250 -0.0000 -0.0000 49.1662 -51.6664 -10.1270
0.0637 17.7290 7.2763 -9.0574 -0.1513 10.7385 0.0000 0.0000 0.0000 -4.6506 -26.3361 -2.5291 0.0616 1.6009 4.4040 -3.0644 29.7825 -18.5354 0.2093 -2.9453 -8.1265 0.0000 0.0000 0.0000 23.3597 21.5146 -8.9173 -0.4564 -4.3340 12.0183 0.2275 -14.2077 -17.3666 -0.0029 0.3461 -0.9509 9.1025 2.9060 5.1387 1.1466 4.0484 6.1019 -3.9221 2.3693 4.0677 -5.1892 -4.4263 -3.0713 10.8418 -7.2518 16.7471 3.8468 -3.0949 6.1295 -0.0000 0.0000 0.0000 -31.0430 -53.0811 72.6939 46.0036 -51.2508 -23.0188 -0.0000 0.0000 -78.0181 3.8941 -6.3473 -0.4312 -7.1250 0.0000 -0.0000 -16.7162 23.6386 8.9853 -0.0000 0.0000 0.0000 37.4313 49.8556 74.6646 -57.9454 55.7371 -32.6372 0.0000 -0.0000 -46.3762 17.7320 -29.1516 -8.8533 7.1250 -0.0000 -0.0000 48.6757 -52.5261 -11.1623
0.0765 17.7251 7.2711 -8.9452 -0.3534 10.7263 0.0000 0.0000 0.0000 -4.8237 -26.0652 -2.6546 0.0650 1.6455 4.5270 -3.0284 29.6428 -18.5143 0.2141 -2.9789 -8.2201 0.0000 0.0000 0.0000 23.1699 21.6189 -8.9198 -0.4590 -4.3458 12.0516 0.2224 -14.1365 -17.3190 -0.0029 0.3476 -0.9550 9.0570 2.7886 5.0150 1.3780 3.8664 6.1838 -3.6463 2.2767 4.1777 -5.1533 -4.4346 -3.1777 10.5530 -7.2162 16.7160 3.7472 -3.0927 6.1244 -0.0000 0.0000 0.0000 -31.0514 -53.3121 72.7675 45.7867 -51.1481 -22.8498 -0.0000 0.0000 -77.5853 3.7589 -6.0691 -0.3980 -7.1250 0.0000 -0.0000 -16.8469 23.9062 8.9526 -0.0000 0.0000 0.0000 37.1073 49.7534 74.3187 -58.0106 55.7561 -32.6911 0.0000 -0.0000 -46.2488 18.5092 -28.7330 -9.1425 7.1250 -0.0000 -0.0000 48.9418 -52.0813 -10.6368
0.0892 17.7225 7.2667 -8.7501 -0.6074 10.7029 0.0000 0.0000 0.0000 -5.1195 -25.7526 -2.7150 0.0669 1.6682 4.5895 -2.9937 29.5045 -18.4771 0.2196 -3.0170 -8.3261 0.0000 0.0000 0.0000 22.8930 21.7172 -8.9063 -0.4609 -4.3548 12.0770 0.2176 -14.0686 -17.2720 -0.0030 0.3537 -0.9719 9.8792 3.3788 5.0371 0.8647 4.6921 6.0508 -4.6300 2.7362 4.2672 -3.6062 -5.1109 -2.8476 10.5520 -8.2406 16.3957 3.4194 -3.5107 5.9959 0.0000 -0.0000 0.0000 -30.9564 -55.3337 74.9003 45.8352 -51.1711 -22.8875 -0.0000 0.0000 -77.3776 3.7450 -5.9715 -0.3902 -7.1250 0.0000 -0.0000 -16.8690 23.9999 8.9270 0.0000 -0.0000 0.0000 36.7549 47.7660 72.5455 -58.3483 55.8535 -32.9704 0.0000 -0.0000 -46.2923 18.7862 -28.1985 -9.1313 7.1250 -0.0000 -0.0000 48.7038 -51.6429 -9.9514
0.1023 17.7203 7.2627 -8.5555 -0.9075 10.7007 0.0000 0.0000 0.0000 -5.4252 -25.5453 -2.6965 0.0663 1.6610 4.5696 -2.9941 29.5152 -18.5300 0.2075 -2.9330 -8.0924 0.0000 0.0000 0.0000 22.6064 21.8316 -8.9427 -0.4661 -4.3790 12.1454 0.2119 -13.9710 -17.1894 -0.0059 0.4951 -1.3603 10.0030 3.4424 4.9930 0.8886 4.7765 5.9942 -4.6709 2.7798 4.2557 -3.0494 -5.1974 -2.6745 10.3272 -8.3542 16.2558 3.2516 -3.5570 5.9003 -0.0000 -0.0000 0.0000 -31.1531 -55.9114 75.8374 45.6701 -51.0926 -22.7590 -0.0000 0.0000 -76.9381 3.8776 -6.0747 -0.4110 -7.1250 0.0000 -0.0000 -16.7613 23.9003 8.9054 -0.0000 -0.0000 0.0000 37.0683 46.9917 72.1684 -57.9776 55.7465 -32.6638 0.0000 -0.0000 -46.3965 18.6496 -28.1616 -9.0504 7.1250 -0.0000 -0.0000 48.5622 -51.6401 -9.9043
0.1193 17.7166 7.2592 -8.4439 -1.2364 10.7043 0.0000 0.0000 0.0000 -5.6432 -25.3931 -2.6694 0.0659 1.6564 4.5570 -3.0125 29.6120 -18.6841 0.1865 -2.7811 -7.6698 0.0000 0.0000 0.0000 22.3997 21.9367 -9.0020 -0.4718 -4.4055 12.2202 0.2104 -13.8623 -17.0303 -0.0129 0.7323 -2.0125 9.7889 3.1752 4.8167 1.2724 4.3807 6.0672 -4.1434 2.5671 4.3150 -3.0636 -4.9646 -2.5670 9.8552 -7.9482 16.0724 3.1349 -3.4026 5.7759 -0.0000 -0.0000 0.0000 -31.3607 -55.6415 75.7573 45.3385 -50.9332 -22.5013 -0.0000 0.0000 -76.4281 3.7788 -6.1112 -0.4029 -7.1250 0.0000 -0.0000 -16.8275 23.8657 8.9578 -0.0000 -0.0000 0.0000 38.7249 46.8601 72.1088 -56.0470 55.1611 -31.0736 0.0000 -0.0000 -45.2197 19.9205 -27.9819 -9.6500 7.1250 -0.0000 -0.0000 49.4260 -51.2853 -9.6642
0.1378 17.7135 7.2563 -8.2988 -1.6027 10.6951 0.0000 0.0000 0.0000 -5.9323 -25.1950 -2.6391 0.0673 1.6743 4.6063 -3.0224 29.6726 -18.8158 0.1805 -2.7368 -7.5468 0.0000 0.0000 0.0000 22.1527 22.0745 -9.0209 -0.4753 -4.4213 12.2649 0.2066 -13.7542 -16.9048 -0.0174 0.8521 -2.3421 9.6177 2.9459 4.7223 1.6014 4.0501 6.0944 -3.7043 2.3860 4.3058 -3.0207 -4.7846 -2.5953 9.4428 -7.6503 16.1236 3.0166 -3.2810 5.7586 0.0000 0.0000 0.0000 -31.6510 -55.4441 75.8800 45.0249 -50.7807 -22.2581 -0.0000 0.0000 -75.9785 3.6921 -6.0424 -0.3892 -7.1250 0.0000 -0.0000 -16.8980 23.9321 8.9716 0.0000 0.0000 0.0000 38.9005 46.8750 72.4063 -55.9142 55.1191 -30.9646 0.0000 -0.0000 -45.4447 19.5944 -28.0414 -9.5002 7.1250 -0.0000 -0.0000 49.2172 -51.3857 -9.7450
0.1556 17.7123 7.2548 -8.0395 -2.0415 10.7265 0.0000 0.0000 0.0000 -6.3450 -24.8799 -2.6678 0.0696 1.7015 4.6815 -3.0143 29.6516 -18.8708 0.1857 -2.7757 -7.6548 0.0000 0.0000 0.0000 21.7496 22.2963 -9.0697 -0.4789 -4.4380 12.3123 0.1964 -13.6153 -16.8196 -0.0164 0.8272 -2.2735 9.2696 2.7197 4.6719 1.9069 3.7302 6.0618 -3.1984 2.1983 4.2021 -2.9823 -4.5895 -2.8496 9.0871 -7.3672 16.4891 2.9108 -3.1480 5.8836 0.0000 0.0000 0.0000 -31.9956 -55.2182 76.1028 44.7742 -50.6574 -22.0640 -0.0000 0.0000 -75.5349 3.9186 -5.9395 -0.4061 -7.1250 0.0000 -0.0000 -16.7486 24.0299 8.8454 0.0000 0.0000 0.0000 39.1136 46.8076 72.7466 -55.8439 55.0967 -30.9069 0.0000 -0.0000 -45.4653 19.7273 -28.1188 -9.5926 7.1250 -0.0000 -0.0000 49.3895 -51.4186 -9.8438
